<?xml version="1.0" encoding="UTF-8"?>
<svg width="169px" height="158px" viewBox="0 0 169 158" version="1.1" xmlns="http://www.w3.org/2000/svg" xmlns:xlink="http://www.w3.org/1999/xlink">
    <!-- Generator: sketchtool 41.2 (35397) - http://www.bohemiancoding.com/sketch -->
    <title>C731FED8-9C2F-43C3-AF72-9905303588E6</title>
    <desc>Created with sketchtool.</desc>
    <defs></defs>
    <g id="Venus" stroke="none" stroke-width="1" fill="none" fill-rule="evenodd" stroke-linecap="round" stroke-linejoin="round">
        <g id="Aphrodite" transform="translate(-166.000000, -130.000000)" stroke="#00a5db" stroke-width="3">
            <g id="Group-5" transform="translate(143.000000, 132.000000)">
                <g id="Logo-Aphrodite" transform="translate(25.000000, 0.000000)">
                    <g id="Group-4" transform="translate(40.000000, 144.000000)">
                        <path d="M43.0196059,1.40918287 C43.0196059,1.40918287 -4.42847194,22.2587768 0.344121972,0" id="Stroke-9"></path>
                        <path d="M83.0196059,1.40918287 C83.0196059,1.40918287 35.5715281,22.2587768 40.344122,0" id="Stroke-9-Copy" transform="translate(61.513200, 5.135916) scale(-1, 1) translate(-61.513200, -5.135916) "></path>
                    </g>
                    <g id="Group-3" transform="translate(2.000000, 105.000000)">
                        <path d="M80,40.5947002 C80,40.5947002 9.8392639,44.7110471 0.90123749,18.5872646 C-2.28435406,9.27751737 3.22418103,1.29915715 13.4946573,0" id="Stroke-3"></path>
                        <path d="M161,40.5947002 C161,40.5947002 90.8392639,44.7110471 81.9012375,18.5872646 C78.7156459,9.27751737 84.224181,1.29915715 94.4946573,0" id="Stroke-3-Copy" transform="translate(121.000000, 20.415531) scale(-1, 1) translate(-121.000000, -20.415531) "></path>
                    </g>
                    <g id="Group-2" transform="translate(0.000000, 15.000000)">
                        <g id="Group" transform="translate(23.000000, 0.000000)">
                            <path d="M59,130 C59,130 -11.5728223,47.5727236 2.91185509,13.7928333 C9.76231383,-2.18371913 25.7872283,-2.51543268 35.2847371,3.91048449" id="Stroke-13"></path>
                            <path d="M118,130 C118,130 47.4271777,47.5727236 61.9118551,13.7928333 C68.7623138,-2.18371913 84.7872283,-2.51543268 94.2847371,3.91048449" id="Stroke-13-Copy" transform="translate(88.976217, 65.000000) scale(-1, 1) translate(-88.976217, -65.000000) "></path>
                        </g>
                        <path d="M82,130 C82,130 5.67439232,96.0029754 0.515954671,68.2932651 C-2.88860151,50.0079195 11.1031936,38.0999816 26.3689272,40.2502094" id="Stroke-17"></path>
                        <path d="M165,130 C165,130 88.6743923,96.0029754 83.5159547,68.2932651 C80.1113985,50.0079195 94.1031936,38.0999816 109.368927,40.2502094" id="Stroke-17-Copy" transform="translate(124.000000, 85.000000) scale(-1, 1) translate(-124.000000, -85.000000) "></path>
                    </g>
                    <path d="M64.2220925,6.90246986 C72.624288,-2.31928852 91.1851808,-2.28233951 99.6363858,6.90246986 C123.30734,32.6285178 82.3373253,145 82.3373253,145 C82.3373253,145 40.6465437,32.7781017 64.2220925,6.90246986 Z" id="Stroke-1"></path>
                </g>
            </g>
        </g>
    </g>
</svg>