<?xml version="1.0" encoding="UTF-8" standalone="no"?>
<svg
   xmlns:dc="http://purl.org/dc/elements/1.1/"
   xmlns:cc="http://creativecommons.org/ns#"
   xmlns:rdf="http://www.w3.org/1999/02/22-rdf-syntax-ns#"
   xmlns:svg="http://www.w3.org/2000/svg"
   xmlns="http://www.w3.org/2000/svg"
   xmlns:sodipodi="http://sodipodi.sourceforge.net/DTD/sodipodi-0.dtd"
   xmlns:inkscape="http://www.inkscape.org/namespaces/inkscape"
   width="356px"
   height="356px"
   viewBox="0 0 356 356"
   version="1.1"
   id="svg2"
   inkscape:version="0.91 r13725"
   sodipodi:docname="application-logo--blue.svg">
  <metadata
     id="metadata17">
    <rdf:RDF>
      <cc:Work
         rdf:about="">
        <dc:format>image/svg+xml</dc:format>
        <dc:type
           rdf:resource="http://purl.org/dc/dcmitype/StillImage" />
        <dc:title>Logo</dc:title>
      </cc:Work>
    </rdf:RDF>
  </metadata>
  <sodipodi:namedview
     pagecolor="#ffffff"
     bordercolor="#666666"
     borderopacity="1"
     objecttolerance="10"
     gridtolerance="10"
     guidetolerance="10"
     inkscape:pageopacity="0"
     inkscape:pageshadow="2"
     inkscape:window-width="1600"
     inkscape:window-height="876"
     id="namedview15"
     showgrid="false"
     inkscape:zoom="1.8750247"
     inkscape:cx="168.27793"
     inkscape:cy="154.43912"
     inkscape:window-x="0"
     inkscape:window-y="24"
     inkscape:window-maximized="1"
     inkscape:current-layer="Page-1" />
  <!-- Generator: Sketch 3.6.1 (26313) - http://www.bohemiancoding.com/sketch -->
  <title
     id="title4">Logo</title>
  <desc
     id="desc6">Created with Sketch.</desc>
  <defs
     id="defs8" />
  <g
     id="Page-1"
     stroke="none"
     stroke-width="1"
     fill="none"
     fill-rule="evenodd">
    <g
       id="Venus"
       transform="matrix(0.99719888,0,0,0.99719888,-330.57143,-36.397759)"
       style="fill:#1a1a1a;stroke:#00a5db;stroke-width:5;stroke-opacity:1">
      <g
         id="Logo"
         transform="translate(335,40)"
         style="fill:#1a1a1a;stroke:#00a5db;stroke-opacity:1">
        <circle
           id="Oval"
           cx="175"
           cy="175"
           r="175"
           style="fill:none;stroke:#00a5db;stroke-width:7;stroke-miterlimit:4;stroke-dasharray:none;stroke-opacity:1" />
        <path
           d="m 174.60416,249.55591 c 0,0 -45.24696,-133.54872 -19.66,-164.34177 9.11913,-10.973915 29.26261,-10.930437 38.43479,0 25.69044,30.61479 -18.77479,164.34177 -18.77479,164.34177 l 0,0 z m -0.0922,-0.0287 c 0,0 -75.778274,-111.44176 -59.8974,-145.29654 5.65913,-12.065224 23.87739,-16.766095 34.74,-9.045224 m 25.54262,155.150464 c 0,0 -96.451324,-81.92871 -91.010453,-114.70524 1.939131,-11.68174 16.391303,-20.08348 27.539133,-16.09218 m 37.02696,126.05046 c 0,0 -61.858267,-26.43131 -72.072181,-58.04784 -3.640001,-11.26782 -0.18174,-32.27044 11.554784,-33.84261 m 87.553057,95.82871 c 0,0 75.77741,-111.44176 59.8974,-145.29654 -5.66,-12.065224 -23.87739,-16.766095 -34.74,-9.045224 M 175.10242,250.33591 c 0,0 96.4522,-81.92871 91.01046,-114.70524 -1.93914,-11.68174 -16.39131,-20.08348 -27.53914,-16.09218 m -37.02696,126.05046 c 0,0 61.85827,-26.43131 72.07218,-58.04784 3.64087,-11.26782 0.18174,-32.27044 -11.55478,-33.84261 m -127.80959,96.63219 c 0,0 -1.44609,16.03826 3.51652,18.54609 2.05913,1.04087 19.5774,4.54696 37.1261,4.55392 17.61739,0.006 35.26522,-3.49131 37.33131,-4.53566 4.96261,-2.50869 3.51739,-18.55565 3.51739,-18.55565"
           id="VENUS-logo"
           style="fill:none;stroke:#00a5db;stroke-width:7;stroke-linecap:round;stroke-linejoin:round;stroke-miterlimit:4;stroke-dasharray:none;stroke-opacity:1"
           inkscape:connector-curvature="0" />
      </g>
    </g>
  </g>
</svg>
