<svg width="30" height="30" viewBox="0 0 30 30" xmlns="http://www.w3.org/2000/svg" xmlns:xlink="http://www.w3.org/1999/xlink"><title>Pagamento / Visa</title><defs><rect id="a" y="4" width="30" height="22.5" rx="2"/></defs><g fill="none" fill-rule="evenodd"><mask id="b" fill="#fff"><use xlink:href="#a"/></mask><use fill="#F3F2F2" xlink:href="#a"/><g mask="url(#b)"><path fill="#293688" d="M11.07 18.829l1.13-7.17h1.83l-1.13 7.17zm8.344-6.985a4.46 4.46 0 0 0-1.64-.3c-1.809 0-3.082.972-3.093 2.366-.01 1.03.909 1.604 1.603 1.947.713.351.952.576.949.89-.005.48-.57.7-1.095.7-.733 0-1.122-.109-1.723-.376l-.236-.114-.257 1.605c.428.2 1.218.374 2.039.382 1.923 0 3.172-.96 3.186-2.45.007-.815-.48-1.436-1.536-1.948-.64-.33-1.032-.552-1.027-.888 0-.298.331-.617 1.048-.617a3.19 3.19 0 0 1 1.37.275l.163.082.249-1.554z"/><path d="M22.534 11.659c-.439 0-.756.144-.948.61l-2.712 6.56h1.937l.377-1.098h2.315l.215 1.098h1.722l-1.507-7.17h-1.4zm-.832 4.637l.729-2.004c-.01.019.15-.415.242-.684l.124.618.424 2.07H21.7z" fill="#293688" fill-rule="nonzero"/><path d="M7.733 16.574l-.16-.983c-.335-1.146-1.371-2.386-2.532-3.007l1.616 6.245h1.938l2.906-7.17H9.564l-1.83 4.915z" fill="#293688"/><path d="M3.051 11.659v.116c2.296.593 3.89 2.093 4.521 3.816l-.663-3.32c-.11-.454-.446-.596-.844-.612H3.051z" fill="#F7981D"/></g></g></svg>