<?xml version="1.0" encoding="UTF-8" standalone="no"?>
<svg width="13px" height="11px" viewBox="0 0 13 11" version="1.1" xmlns="http://www.w3.org/2000/svg" xmlns:xlink="http://www.w3.org/1999/xlink">
    <!-- Generator: Sketch 3.8.3 (29802) - http://www.bohemiancoding.com/sketch -->
    <title>Group</title>
    <desc>Created with Sketch.</desc>
    <defs></defs>
    <g id="Page-1" stroke="none" stroke-width="1" fill="none" fill-rule="evenodd">
        <g id="Compra---Nomear-Ingressos" transform="translate(-224.000000, -445.000000)" fill="#d4d7d9">
            <g id="Ingresso" transform="translate(200.000000, 300.000000)">
                <g id="Selecionado-1" transform="translate(21.000000, 139.000000)">
                    <g id="Check" transform="translate(0.000000, 2.000000)">
                        <g id="Group" transform="translate(3.000000, 4.000000)">
                            <path d="M3.29130165,3.46234008 L6.5388344,6.70879685 C6.92826233,7.09812614 6.93040693,7.72720958 6.53010815,8.12740696 L5.12891592,9.52824425 C4.73466861,9.92239168 4.09467078,9.92159523 3.70994637,9.53696828 L0.462413626,6.2905115 C0.0729856884,5.90118221 0.0708410928,5.27209877 0.471139866,4.8719014 L1.8723321,3.47106411 C2.26657941,3.07691667 2.90657724,3.07771312 3.29130165,3.46234008 Z" id="Rectangle"></path>
                            <path d="M11.8928701,2.11469553 C12.2870532,2.50887861 12.2920545,3.14297437 11.9026221,3.53240673 L5.53240673,9.90262212 C5.14360953,10.2914193 4.51492909,10.2931037 4.11469553,9.89287013 L2.71373159,8.49190618 C2.31954852,8.09772311 2.31454724,7.46362735 2.7039796,7.07419499 L9.07419499,0.703979601 C9.46299219,0.315182403 10.0916726,0.313498037 10.4919062,0.713731591 L11.8928701,2.11469553 L11.8928701,2.11469553 Z" id="Rectangle-Copy"></path>
                        </g>
                    </g>
                </g>
            </g>
        </g>
    </g>
</svg>
