<?xml version="1.0" encoding="UTF-8"?>
<svg width="30px" height="30px" viewBox="0 0 30 30" version="1.1" xmlns="http://www.w3.org/2000/svg" xmlns:xlink="http://www.w3.org/1999/xlink">
    <!-- Generator: Sketch 56.3 (81716) - https://sketch.com -->
    <title>Icon / 30 / Delete / White</title>
    <desc>Created with Sketch.</desc>
    <g id="Icon-/-30-/-Delete-/-White" stroke="none" stroke-width="1" fill="none" fill-rule="evenodd">
        <path d="M15,0 C23.2842712,-1.52179594e-15 30,6.71572875 30,15 C30,23.2842712 23.2842712,30 15,30 C6.71572875,30 1.01453063e-15,23.2842712 0,15 C-1.01453063e-15,6.71572875 6.71572875,1.52179594e-15 15,0 Z M24.25,18 C24.6642136,18 25,17.6642136 25,17.25 L25,13.75 C25,13.3357864 24.6642136,13 24.25,13 L5.75,13 C5.33578644,13 5,13.3357864 5,13.75 L5,17.25 C5,17.6642136 5.33578644,18 5.75,18 L24.25,18 Z" id="Combined-Shape" fill="#FFFFFF"></path>
    </g>
</svg>