<svg width="30" height="30" viewBox="0 0 30 30" xmlns="http://www.w3.org/2000/svg" xmlns:xlink="http://www.w3.org/1999/xlink"><title>Pagamento / Discover</title><defs><rect id="a" y="4" width="30" height="22.5" rx="2"/></defs><g fill="none" fill-rule="evenodd"><mask id="b" fill="#fff"><use xlink:href="#a"/></mask><use fill="#F3F2F2" xlink:href="#a"/><g mask="url(#b)"><g transform="translate(2.5 11)"><ellipse fill="#F26E21" cx="13.289" cy="2.119" rx="2.079" ry="2.114"/><path fill="#000" d="M5.707 7.86V5.602l1.516 1.613v-1.47h.314v2.243L6.02 6.38v1.48h-.314zM9.182 6.046h-.833v.508h.809v.3h-.81v.706h.834v.3H8.035V5.746h1.147v.3zM10.167 6.046V7.86h-.314V6.046h-.477v-.3h1.268v.3zM11.15 5.746l.541 1.413.566-1.515.541 1.515.575-1.413h.34l-.928 2.248-.535-1.498-.557 1.5-.883-2.25z"/><path d="M13.774 6.794c0-.298.107-.554.322-.767.213-.214.47-.32.77-.32.296 0 .55.107.762.322.213.216.319.475.319.777 0 .304-.107.562-.32.774-.215.212-.474.319-.777.319-.268 0-.51-.095-.723-.284a1.048 1.048 0 0 1-.353-.821zm.316.003a.77.77 0 0 0 .232.576c.153.15.33.226.532.226a.743.743 0 0 0 .552-.23.784.784 0 0 0 .224-.566.78.78 0 0 0-.222-.566.727.727 0 0 0-.546-.23.733.733 0 0 0-.548.23.766.766 0 0 0-.224.56zM17.045 6.96l.644.9h-.384l-.594-.865h-.056v.865h-.314V5.746h.367c.275 0 .473.053.596.158.134.116.202.27.202.463 0 .15-.042.278-.127.385a.562.562 0 0 1-.334.207zm-.39-.243h.1c.296 0 .445-.116.445-.347 0-.216-.144-.324-.434-.324h-.111v.67z" fill="#000" fill-rule="nonzero"/><path fill="#000" d="M18.315 6.59l.809-.844h.419l-.94.957.945 1.157h-.42l-.749-.94-.064.065v.875H18V5.746h.314v.843z"/><g fill="#0B161F"><path d="M2.094 3.132c-.245.223-.561.32-1.063.32H.823V.796h.208c.502 0 .805.09 1.063.325.268.24.428.613.428.998 0 .386-.16.772-.428 1.012zM1.187.118H.047V4.13H1.18c.602 0 1.037-.143 1.42-.463.452-.379.721-.95.721-1.541C3.322.94 2.445.118 1.187.118z" fill-rule="nonzero"/><path d="M3.68 4.13h.775V.118H3.68V4.13M6.353 1.657c-.466-.174-.603-.29-.603-.505 0-.253.244-.445.579-.445.233 0 .423.096.627.324l.405-.535A1.73 1.73 0 0 0 6.19.051c-.703 0-1.24.493-1.24 1.148 0 .554.25.837.978 1.102.305.108.46.18.537.229a.482.482 0 0 1 .233.415c0 .325-.257.565-.603.565-.37 0-.668-.186-.847-.535l-.5.488c.357.529.786.764 1.377.764.806 0 1.372-.542 1.372-1.318 0-.638-.262-.927-1.145-1.252M7.743 2.126a2.07 2.07 0 0 0 2.1 2.095c.335 0 .62-.067.973-.234v-.922c-.31.313-.585.44-.937.44-.782 0-1.337-.572-1.337-1.385 0-.77.573-1.378 1.301-1.378.37 0 .65.132.973.451v-.92A1.968 1.968 0 0 0 9.86.027a2.101 2.101 0 0 0-2.118 2.099M17.104 2.813L16.042.118h-.848l1.69 4.115h.417L19.019.118h-.841l-1.074 2.695M19.372 4.13h2.2v-.679h-1.425V2.367h1.371v-.68h-1.37v-.89h1.425v-.68h-2.201V4.13"/><path d="M23.088 1.965h-.226V.748h.238c.484 0 .747.206.747.596 0 .403-.263.62-.76.62zm1.557-.663c0-.752-.513-1.184-1.409-1.184h-1.15V4.13h.775V2.518h.102l1.073 1.612h.955l-1.254-1.69c.586-.12.908-.524.908-1.138z" fill-rule="nonzero"/></g></g></g></g></svg>