<svg height="30" viewBox="0 0 30 30" width="30" xmlns="http://www.w3.org/2000/svg" xmlns:xlink="http://www.w3.org/1999/xlink"><defs><rect id="a" height="22.5" rx="2" width="30" y="4"/><mask id="b" fill="#fff"><use fill-rule="evenodd" xlink:href="#a"/></mask></defs><g fill="none" fill-rule="evenodd"><use fill="#ffc61e" xlink:href="#a"/><g mask="url(#b)"><path d="M12.656 22.302l.264-1.743-.587-.015h-2.8L11.48 7.678a.161.161 0 0 1 .158-.14h4.72c1.568 0 2.65.34 3.214 1.01.264.316.433.645.515 1.007.085.38.087.834.003 1.388l-.006.04v.355l.265.157c.202.106.383.25.536.426.226.269.373.611.434 1.017.064.417.043.914-.061 1.476-.121.647-.316 1.21-.58 1.67-.233.413-.546.771-.919 1.05-.35.26-.766.456-1.236.582a5.927 5.927 0 0 1-1.546.187h-.368c-.262 0-.518.098-.718.275-.2.18-.333.426-.374.697l-.028.157-.465 3.073-.021.113c-.006.036-.015.054-.03.066a.076.076 0 0 1-.048.018z" fill="#253b80"/><path d="M20.598 11.024c-.014.094-.03.19-.048.289-.622 3.333-2.752 4.485-5.472 4.485h-1.385a.682.682 0 0 0-.665.594l-.709 4.69-.2 1.33a.38.38 0 0 0 .08.298c.067.082.166.13.27.13h2.455a.6.6 0 0 0 .584-.52l.024-.13.463-3.062.03-.168c.045-.3.292-.52.583-.52h.368c2.38 0 4.242-1.008 4.787-3.924.227-1.219.11-2.236-.492-2.951a2.364 2.364 0 0 0-.673-.54z" fill="#179bd7"/><path d="M19.947 10.753a4.737 4.737 0 0 0-.605-.14 7.38 7.38 0 0 0-1.221-.093h-3.7c-.29 0-.538.221-.583.521l-.787 5.2-.023.151a.682.682 0 0 1 .665-.594h1.385c2.72 0 4.85-1.152 5.472-4.485.019-.099.034-.195.048-.289a3.245 3.245 0 0 0-.65-.27z" fill="#222d65"/><path d="M13.838 11.041a.596.596 0 0 1 .583-.52h3.7c.438 0 .847.03 1.22.093.253.041.503.103.746.185.184.064.354.139.512.225.185-1.232-.002-2.07-.64-2.83C19.255 7.358 17.984 7 16.359 7h-4.721a.684.684 0 0 0-.667.595L9.005 20.593a.436.436 0 0 0 .092.34c.077.095.19.15.308.15h2.914l.732-4.843z" fill="#253b80"/></g></g></svg>