<svg width="30" height="30" viewBox="0 0 30 30" xmlns="http://www.w3.org/2000/svg" xmlns:xlink="http://www.w3.org/1999/xlink"><title>Pagamento / Diners</title><defs><rect id="a" y="4" width="30" height="22.5" rx="2"/></defs><g fill="none" fill-rule="evenodd"><mask id="b" fill="#fff"><use xlink:href="#a"/></mask><use fill="#00529E" xlink:href="#a"/><g mask="url(#b)"><path d="M16.663 22.467c4.218.02 8.069-3.336 8.069-7.419 0-4.463-3.851-7.55-8.069-7.548h-3.63c-4.269-.002-7.783 3.085-7.783 7.548 0 4.084 3.514 7.44 7.783 7.42h3.63z" fill="#FFF"/><path d="M14.7 19.057v-8.106c1.68.624 2.872 2.203 2.875 4.053-.003 1.85-1.196 3.427-2.875 4.053m-6.08-4.053c.004-1.85 1.195-3.426 2.874-4.053v8.105c-1.679-.627-2.87-2.203-2.873-4.052m4.476-6.852c-3.9 0-7.062 3.068-7.063 6.852.001 3.783 3.163 6.849 7.063 6.85 3.902-.001 7.064-3.067 7.064-6.85 0-3.784-3.163-6.851-7.064-6.852" fill="#00529E" fill-rule="nonzero"/></g></g></svg>