<?xml version="1.0" encoding="UTF-8"?>
<svg width="30px" height="30px" viewBox="0 0 30 30" version="1.1" xmlns="http://www.w3.org/2000/svg" xmlns:xlink="http://www.w3.org/1999/xlink">
    <!-- Generator: Sketch 55.2 (78181) - https://sketchapp.com -->
    <title>Pagamento / Dinheiro</title>
    <desc>Created with Sketch.</desc>
    <defs>
        <rect id="path-1" x="0" y="4" width="30" height="22.5" rx="2"></rect>
    </defs>
    <g id="Pagamento-/-Dinheiro" stroke="none" stroke-width="1" fill="none" fill-rule="evenodd">
        <mask id="mask-2" fill="white">
            <use xlink:href="#path-1"></use>
        </mask>
        <use id="Fundo" fill="#59B47D" xlink:href="#path-1"></use>
        <g id="Dinheiro" mask="url(#mask-2)" fill="#FFFFFF">
            <g transform="translate(7.500000, 7.500000)">
                <path d="M7.5,0 C3.36441039,0 0,3.36441039 0,7.5 C0,11.6352844 3.36441039,15 7.5,15 C11.6352844,15 15,11.6352844 15,7.5 C15,3.36441039 11.6352844,0 7.5,0 Z M7.5,13.75 C4.0538025,13.75 1.25,10.9461975 1.25,7.5 C1.25,4.0538025 4.0538025,1.25 7.5,1.25 C10.9461975,1.25 13.75,4.0538025 13.75,7.5 C13.75,10.9461975 10.9461975,13.75 7.5,13.75 Z" id="Shape" fill-rule="nonzero"></path>
                <polygon id="Path" fill-rule="evenodd" points="8.125 2.8125 6.875 2.8125 6.875 4.375 5 4.375 5 8.125 8.75 8.125 8.75 9.375 5 9.375 5 10.625 6.875 10.625 6.875 12.1875 8.125 12.1875 8.125 10.625 10 10.625 10 6.875 6.25 6.875 6.25 5.625 10 5.625 10 4.375 8.125 4.375"></polygon>
            </g>
        </g>
    </g>
</svg>