<svg width="30" height="30" viewBox="0 0 30 30" xmlns="http://www.w3.org/2000/svg" xmlns:xlink="http://www.w3.org/1999/xlink"><title>Pagamento / Cortesia</title><defs><rect id="a" y="4" width="30" height="22.5" rx="2"/></defs><g fill="none" fill-rule="evenodd"><mask id="b" fill="#fff"><use xlink:href="#a"/></mask><use fill="#F882B8" xlink:href="#a"/><g mask="url(#b)" fill="#FFF" fill-rule="nonzero"><path d="M20.417 8.5h-2.709c-.706 0-1.306.453-1.53 1.083h-2.356a1.626 1.626 0 0 0-1.53-1.083H9.583v3.25H8.5v3.52h1.083v6.23h10.834v-6.23H21.5v-3.52h-1.083V8.5zm-7.584 11.917h-2.166V15.27h2.166v5.146zm0-6.23h-3.25v-1.354h3.25v1.354zm0-3.52v1.083h-2.166V9.583h1.625c.298 0 .541.243.541.542v.542zm3.25 4.604v5.146h-2.166v-7.584h2.166v2.438zm0-3.521h-2.166v-1.083h2.166v1.083zm1.084-1.083v-.542c0-.299.243-.542.541-.542h1.625v2.167h-2.166v-1.083zm2.166 9.75h-2.166V15.27h2.166v5.146zm1.084-6.23h-3.25v-1.354h3.25v1.354z"/></g></g></svg>