<?xml version="1.0" encoding="UTF-8"?>
<svg width="30px" height="30px" viewBox="0 0 30 30" version="1.1" xmlns="http://www.w3.org/2000/svg" xmlns:xlink="http://www.w3.org/1999/xlink">
    <!-- Generator: Sketch 55.2 (78181) - https://sketchapp.com -->
    <title>Pagamento / Amex</title>
    <desc>Created with Sketch.</desc>
    <defs>
        <rect id="path-1" x="0" y="4" width="30" height="22.5" rx="2"></rect>
    </defs>
    <g id="Pagamento-/-Amex" stroke="none" stroke-width="1" fill="none" fill-rule="evenodd">
        <mask id="mask-2" fill="white">
            <use xlink:href="#path-1"></use>
        </mask>
        <use id="Fundo" fill="#27ADE4" xlink:href="#path-1"></use>
        <g id="Amex" mask="url(#mask-2)" fill-rule="nonzero">
            <g transform="translate(0.750000, 9.800000)" id="Shape">
                <path d="M3.46580854,2.55314286 L2.95162683,1.24857143 L2.44050366,2.55314286 L3.46580854,2.55314286 Z M14.7871207,2.03357143 C14.6838951,2.09907143 14.5619012,2.10121429 14.4157171,2.10121429 L13.5033,2.10121429 L13.5033,1.3745 L14.4279512,1.3745 C14.5587732,1.3745 14.6953646,1.38014286 14.7839927,1.433 C14.8812402,1.48114286 14.9413693,1.58264286 14.9413693,1.72271429 C14.9416463,1.86542857 14.8841598,1.98064286 14.7871207,2.03357143 L14.7871207,2.03357143 Z M21.2940183,2.55314286 L20.7746232,1.24857143 L20.258078,2.55314286 L21.2940183,2.55314286 L21.2940183,2.55314286 Z M9.16455732,3.96507143 L8.39464024,3.96507143 L8.39179024,1.402 L7.30302073,3.96507143 L6.64369756,3.96507143 L5.5523561,1.39985714 L5.5523561,3.96507143 L4.02503415,3.96507143 L3.73655854,3.23514286 L2.1734378,3.23514286 L1.88183415,3.96507143 L1.0664561,3.96507143 L2.41089146,0.692642857 L3.52670122,0.692642857 L4.80350122,3.79078571 L4.80350122,0.692642857 L6.02879268,0.692642857 L7.01141707,2.91257143 L7.91396341,0.692642857 L9.16455732,0.692642857 L9.16455732,3.96507143 L9.16455732,3.96507143 L9.16455732,3.96507143 Z M12.2324085,3.96507143 L9.72406098,3.96507143 L9.72406098,0.692642857 L12.232478,0.692642857 L12.232478,1.37442857 L10.4752793,1.37442857 L10.4752793,1.96428571 L12.1903537,1.96428571 L12.1903537,2.63514286 L10.4752793,2.63514286 L10.4752793,3.28778571 L12.232478,3.28778571 L12.2324085,3.96507143 L12.2324085,3.96507143 Z M15.7689805,1.57435714 C15.7689805,2.0955 15.4344878,2.36571429 15.2397146,2.44621429 C15.404111,2.51171429 15.5445256,2.62664286 15.6111183,2.72228571 C15.7172634,2.8845 15.7356841,3.03021429 15.7356841,3.322 L15.7356841,3.96507143 L14.9782793,3.96507143 L14.9754293,3.55242857 C14.9754293,3.35542857 14.9933634,3.07185714 14.8568415,2.91471429 C14.7470817,2.79978571 14.5801134,2.77464286 14.309572,2.77464286 L13.5033,2.77464286 L13.5033,3.96507143 L12.7524293,3.96507143 L12.7524293,0.692642857 L14.4797378,0.692642857 C14.8636537,0.692642857 15.1463598,0.703071429 15.3887488,0.849285714 C15.6264805,0.996 15.7689805,1.209 15.7689805,1.57435714 L15.7689805,1.57435714 Z M16.9706378,3.96507143 L16.2046134,3.96507143 L16.2046134,0.692928571 L16.9706378,0.692928571 L16.9706378,3.96507143 Z M25.8585366,3.96507143 L24.7941659,3.96507143 L23.3711817,1.50885714 L23.3711817,3.96507143 L21.8417744,3.96507143 L21.5499622,3.23514286 L19.990178,3.23514286 L19.7064293,3.96507143 L18.8277951,3.96507143 C18.4631341,3.96507143 18.0006695,3.88085714 17.7390256,3.60292857 C17.4750183,3.32521429 17.3379402,2.94892857 17.3379402,2.35371429 C17.3379402,1.86885714 17.4196171,1.42442857 17.7429183,1.07457143 C17.9855854,0.813214286 18.3658171,0.692642857 18.8831963,0.692642857 L19.6098768,0.692642857 L19.6098768,1.39371429 L18.8982805,1.39371429 C18.6244024,1.39371429 18.4698768,1.43621429 18.3206341,1.58778571 C18.1926622,1.72592857 18.1047293,1.98628571 18.1047293,2.32921429 C18.1047293,2.67957143 18.1718085,2.93242857 18.311528,3.09735714 C18.4267793,3.227 18.6369146,3.26628571 18.8346073,3.26628571 L19.171672,3.26628571 L20.2299951,0.693 L21.355189,0.693 L22.626289,3.78821429 L22.626289,0.693 L23.7696951,0.693 L25.0894537,2.97171429 L25.0894537,0.693 L25.8585366,0.693 L25.8585366,3.96507143 L25.8585366,3.96507143 Z M1.05783659,4.60785714 L2.34061463,4.60785714 L2.62985488,3.88085714 L3.27722195,3.88085714 L3.56569756,4.60785714 L6.08996341,4.60785714 L6.08996341,4.05221429 L6.31546098,4.61 L7.62555732,4.61 L7.85077683,4.04392857 L7.85077683,4.60785714 L14.1238354,4.60785714 L14.1207073,3.4145 L14.2421451,3.4145 C14.327228,3.41771429 14.3519049,3.426 14.3519049,3.57221429 L14.3519049,4.60785714 L17.5963866,4.60785714 L17.5963866,4.33014286 C17.8583085,4.47635714 18.265372,4.60785714 18.801172,4.60785714 L20.1659049,4.60785714 L20.4579951,3.88085714 L21.1056402,3.88085714 L21.3911963,4.60785714 L24.0213293,4.60785714 L24.0213293,3.91721429 L24.4197732,4.60785714 L26.5275915,4.60785714 L26.5275915,0.044 L24.441322,0.044 L24.441322,0.583071429 L24.1495098,0.044 L22.0088817,0.044 L22.0088817,0.583071429 L21.7409817,0.044 L18.849622,0.044 C18.3660951,0.044 17.940611,0.114571429 17.5967341,0.3105 L17.5967341,0.044 L15.6015256,0.044 L15.6015256,0.3105 C15.3830488,0.108428571 15.0852585,0.044 14.7536159,0.044 L7.46435854,0.044 L6.97534024,1.22264286 L6.47311463,0.044 L4.17691829,0.044 L4.17691829,0.583071429 L3.92458902,0.044 L1.96691707,0.044 L1.05735,2.21392857 L0.014597561,4.60785714 L1.05783659,4.60785714 Z" fill="#2D78BC"></path>
                <path d="M3.46580854,2.82035714 L2.95162683,1.51578571 L2.44050366,2.82035714 L3.46580854,2.82035714 Z M14.7871207,2.30078571 C14.6838951,2.36628571 14.5619012,2.36842857 14.4157171,2.36842857 L13.5033,2.36842857 L13.5033,1.64171429 L14.4279512,1.64171429 C14.5587732,1.64171429 14.6953646,1.64735714 14.7839927,1.70021429 C14.8812402,1.74835714 14.9413693,1.84985714 14.9413693,1.98992857 C14.9416463,2.13271429 14.8841598,2.24792857 14.7871207,2.30078571 L14.7871207,2.30078571 Z M21.2940183,2.82035714 L20.7746232,1.51578571 L20.258078,2.82035714 L21.2940183,2.82035714 L21.2940183,2.82035714 Z M9.16455732,4.23235714 L8.39464024,4.23235714 L8.39179024,1.66928571 L7.30302073,4.23235714 L6.64369756,4.23235714 L5.5523561,1.66714286 L5.5523561,4.23235714 L4.02503415,4.23235714 L3.73655854,3.50242857 L2.1734378,3.50242857 L1.88183415,4.23235714 L1.0664561,4.23235714 L2.41089146,0.959928571 L3.52670122,0.959928571 L4.80350122,4.05807143 L4.80350122,0.959928571 L6.02879268,0.959928571 L7.01141707,3.17985714 L7.91396341,0.959928571 L9.16455732,0.959928571 L9.16455732,4.23235714 L9.16455732,4.23235714 L9.16455732,4.23235714 Z M12.2324085,4.23235714 L9.72406098,4.23235714 L9.72406098,0.959928571 L12.232478,0.959928571 L12.232478,1.64171429 L10.4752793,1.64171429 L10.4752793,2.23157143 L12.1903537,2.23157143 L12.1903537,2.90242857 L10.4752793,2.90242857 L10.4752793,3.55507143 L12.232478,3.55507143 L12.2324085,4.23235714 L12.2324085,4.23235714 Z M15.7689805,1.84164286 C15.7689805,2.36278571 15.4344878,2.633 15.2397146,2.7135 C15.404111,2.779 15.5445256,2.89392857 15.6111183,2.98957143 C15.7172634,3.15178571 15.7356841,3.2975 15.7356841,3.58928571 L15.7356841,4.23235714 L14.9782793,4.23235714 L14.9754293,3.81971429 C14.9754293,3.62271429 14.9933634,3.33914286 14.8568415,3.182 C14.7470817,3.06707143 14.5801134,3.04192857 14.309572,3.04192857 L13.5033,3.04192857 L13.5033,4.23235714 L12.7524293,4.23235714 L12.7524293,0.959928571 L14.4797378,0.959928571 C14.8636537,0.959928571 15.1463598,0.970357143 15.3887488,1.11657143 C15.6264805,1.26328571 15.7689805,1.47628571 15.7689805,1.84164286 L15.7689805,1.84164286 Z M16.9706378,4.23235714 L16.2046134,4.23235714 L16.2046134,0.960214286 L16.9706378,0.960214286 L16.9706378,4.23235714 Z M25.8585366,4.23235714 L24.7941659,4.23235714 L23.3711817,1.77614286 L23.3711817,4.23235714 L21.8417744,4.23235714 L21.5499622,3.50242857 L19.990178,3.50242857 L19.7064293,4.23235714 L18.8277951,4.23235714 C18.4631341,4.23235714 18.0006695,4.14814286 17.7390256,3.87021429 C17.4750183,3.5925 17.3379402,3.21621429 17.3379402,2.621 C17.3379402,2.13614286 17.4196171,1.69171429 17.7429183,1.34185714 C17.9855854,1.0805 18.3658171,0.959928571 18.8831963,0.959928571 L19.6098768,0.959928571 L19.6098768,1.661 L18.8982805,1.661 C18.6244024,1.661 18.4698768,1.7035 18.3206341,1.85507143 C18.1926622,1.99321429 18.1047293,2.25357143 18.1047293,2.5965 C18.1047293,2.94685714 18.1718085,3.19971429 18.311528,3.36464286 C18.4267793,3.49428571 18.6369146,3.53357143 18.8346073,3.53357143 L19.171672,3.53357143 L20.2299951,0.960285714 L21.355189,0.960285714 L22.626289,4.0555 L22.626289,0.960285714 L23.7696951,0.960285714 L25.0894537,3.239 L25.0894537,0.960285714 L25.8585366,0.960285714 L25.8585366,4.23235714 L25.8585366,4.23235714 Z M1.05783659,4.87514286 L2.34061463,4.87514286 L2.62985488,4.14814286 L3.27722195,4.14814286 L3.56569756,4.87514286 L6.08996341,4.87514286 L6.08996341,4.3195 L6.31546098,4.87728571 L7.62555732,4.87728571 L7.85077683,4.31121429 L7.85077683,4.87514286 L14.1238354,4.87514286 L14.1207073,3.68178571 L14.2421451,3.68178571 C14.327228,3.685 14.3519049,3.69328571 14.3519049,3.8395 L14.3519049,4.87514286 L17.5963866,4.87514286 L17.5963866,4.59742857 C17.8583085,4.74364286 18.265372,4.87514286 18.801172,4.87514286 L20.1659049,4.87514286 L20.4579951,4.14814286 L21.1056402,4.14814286 L21.3911963,4.87514286 L24.0213293,4.87514286 L24.0213293,4.1845 L24.4197732,4.87514286 L26.5275915,4.87514286 L26.5275915,0.311285714 L24.441322,0.311285714 L24.441322,0.850357143 L24.1495098,0.311285714 L22.0088817,0.311285714 L22.0088817,0.850357143 L21.7409817,0.311285714 L18.849622,0.311285714 C18.3660951,0.311285714 17.940611,0.381857143 17.5967341,0.577785714 L17.5967341,0.311285714 L15.6015256,0.311285714 L15.6015256,0.577785714 C15.3830488,0.375714286 15.0852585,0.311285714 14.7536159,0.311285714 L7.46435854,0.311285714 L6.97534024,1.48992857 L6.47311463,0.311285714 L4.17691829,0.311285714 L4.17691829,0.850357143 L3.92458902,0.311285714 L1.96691707,0.311285714 L1.05735,2.48121429 L0.014597561,4.87514286 L1.05783659,4.87514286 Z" fill="#FFFFFF"></path>
                <path d="M28.2120805,7.6935 L28.2120805,5.59971429 L27.6924073,5.59971429 L27.6924073,5.59971429 L26.3310805,5.59971429 C25.9115744,5.59971429 25.6064159,5.70421429 25.3908585,5.86642857 L25.3908585,5.59971429 L23.3345488,5.59971429 C23.0057561,5.59971429 22.6195463,5.68414286 22.4374939,5.86642857 L22.4374939,5.59971429 L18.7648171,5.59971429 L18.7648171,5.86642857 C18.4727268,5.64728571 17.9793293,5.59971429 17.7520244,5.59971429 L15.3297329,5.59971429 L15.3297329,5.86642857 C15.0985354,5.63364286 14.5845622,5.59971429 14.2711317,5.59971429 L11.5603646,5.59971429 L10.9400378,6.29807143 L10.3589854,5.59971429 L6.30955244,5.59971429 L6.30955244,10.1630714 L10.282522,10.1630714 L10.9218256,9.45371429 L11.5236622,10.1630714 L13.9729939,10.1657143 L13.9729939,9.09185714 L14.2135756,9.09185714 C14.5384061,9.09721429 14.9215573,9.08357143 15.2596646,8.9315 L15.2596646,10.1627857 L17.279828,10.1627857 L17.279828,8.97314286 L17.3776317,8.97314286 C17.501989,8.97314286 17.5139451,8.97878571 17.5139451,9.10785714 L17.5139451,10.1627857 L23.6502037,10.1627857 C24.0400976,10.1627857 24.447439,10.0587857 24.6731451,9.87092857 L24.6731451,10.1627857 L26.6192085,10.1627857 C27.0244646,10.1627857 27.4200585,10.1037143 27.7209768,9.95242857 L27.7209768,9.94764286 C28.160572,9.65628571 28.4528733,9.14585714 28.4528733,8.56321429 C28.4534268,8.2435 28.3645207,7.9455 28.2120805,7.6935 Z M14.24715,8.42364286 L13.309778,8.42364286 L13.309778,9.52078571 L11.8498134,9.52078571 L10.9246756,8.43778571 L9.9636,9.52078571 L6.98785244,9.52078571 L6.98785244,6.25 L10.0094085,6.25 L10.9335037,7.322 L11.8890878,6.25 L14.2895524,6.25 C14.885411,6.25 15.555161,6.42185714 15.555161,7.32735714 C15.555161,8.23628571 14.9036232,8.42364286 14.24715,8.42364286 Z M18.7679451,8.27535714 C18.8740902,8.43492857 18.8893829,8.58378571 18.892511,8.87242857 L18.892511,9.52085714 L18.1387207,9.52085714 L18.1387207,9.11164286 C18.1387207,8.91492857 18.1566549,8.62364286 18.0170049,8.47128571 C17.9069671,8.35421429 17.7402768,8.32585714 17.4658427,8.32585714 L16.6629073,8.32585714 L16.6629073,9.52078571 L15.9083524,9.52078571 L15.9083524,6.25 L17.6426817,6.25 C18.0229134,6.25 18.299711,6.26735714 18.5465488,6.4045 C18.7837939,6.55335714 18.932828,6.75728571 18.932828,7.13064286 C18.932828,7.65264286 18.5980573,7.91935714 18.4004341,8.00085714 C18.5668463,8.065 18.7039244,8.17992857 18.7679451,8.27535714 Z M21.8560939,6.92671429 L20.0968098,6.92671429 L20.0968098,7.52135714 L21.8132049,7.52135714 L21.8132049,8.18871429 L20.0968098,8.18871429 L20.0968098,8.8395 L21.8560939,8.84271429 L21.8560939,9.52128571 L19.3489976,9.52128571 L19.3489976,6.25 L21.8560939,6.25 L21.8560939,6.92671429 L21.8560939,6.92671429 Z M23.7690695,9.52107143 L22.3060463,9.52107143 L22.3060463,8.8195 L23.7636476,8.8195 C23.9061476,8.8195 24.0070793,8.80028571 24.0705439,8.73828571 C24.1217744,8.68807143 24.1592415,8.61428571 24.1592415,8.52557143 C24.1592415,8.43014286 24.1192024,8.35428571 24.0674159,8.30878571 C24.0096512,8.25857143 23.9308939,8.23635714 23.8000024,8.23635714 C23.0974427,8.21178571 22.2175573,8.25878571 22.2175573,7.22364286 C22.2175573,6.74921429 22.5041561,6.25 23.2915207,6.25 L24.7977805,6.25 L24.7977805,6.94621429 L23.4197707,6.94621429 C23.2832488,6.94621429 23.1942732,6.95157143 23.1185744,7.005 C23.0366195,7.05821429 23.0056866,7.1365 23.0056866,7.24071429 C23.0056866,7.36392857 23.0758939,7.44785714 23.1700829,7.4845 C23.2496744,7.51285714 23.3344793,7.52114286 23.4624512,7.52114286 L23.8671512,7.53314286 C24.2747012,7.543 24.5548354,7.61678571 24.7249317,7.79585714 C24.8713939,7.953 24.9493866,8.15185714 24.9493866,8.48835714 C24.949178,9.19235714 24.5270305,9.52107143 23.7690695,9.52107143 Z M27.6354768,9.20514286 C27.4375756,9.41335714 27.1183756,9.52107143 26.7019976,9.52107143 L25.251139,9.52107143 L25.251139,8.8195 L26.69595,8.8195 C26.8394927,8.8195 26.9399378,8.80028571 27.0002744,8.73828571 C27.0525476,8.68807143 27.088972,8.61428571 27.088972,8.52557143 C27.088972,8.43014286 27.0525476,8.35428571 26.9971463,8.30878571 C26.9427878,8.25857143 26.8634744,8.23635714 26.7323744,8.23635714 C26.0269646,8.21178571 25.1470793,8.25878571 25.1470793,7.22364286 C25.1470793,6.74921429 25.4363195,6.25 26.2249354,6.25 L27.6926854,6.25 L27.6926854,6.946 L26.3524207,6.946 C26.2161073,6.946 26.1251159,6.95164286 26.0483744,7.00507143 C25.969061,7.058 25.9386146,7.13657143 25.9386146,7.24028571 C25.9386146,7.364 26.0054854,7.44742857 26.103011,7.48407143 C26.1826024,7.51292857 26.2674073,7.52121429 26.3922512,7.52121429 L26.7993146,7.53271429 C27.2102707,7.54314286 27.4847049,7.61664286 27.6513951,7.796 C27.6818415,7.82085714 27.7002622,7.84892857 27.7216024,7.87671429 C27.7130524,7.86521429 27.704711,7.85428571 27.6958829,7.84278571 C27.8259402,8.02185714 27.904211,8.2445 27.904211,8.48635714 C27.9041415,8.76364286 27.8014024,9.01514286 27.6354768,9.20514286 Z M9.61951463,6.92671429 L10.4414268,7.87978571 L9.58309024,8.83928571 L7.73587317,8.83928571 L7.73587317,8.1885 L9.38518902,8.1885 L9.38518902,7.52114286 L7.73587317,7.52114286 L7.73587317,6.92671429 L9.61951463,6.92671429 L9.61951463,6.92671429 Z M11.4084805,7.891 L12.5620354,6.60142857 L12.5620354,9.22357143 L11.4084805,7.891 Z M14.7491671,7.32757143 C14.7491671,7.61114286 14.5694085,7.7595 14.2807244,7.7595 L13.3100561,7.7595 L13.3100561,6.92671429 L14.2898305,6.92671429 C14.5605805,6.92671429 14.7491671,7.04135714 14.7491671,7.32757143 Z M18.1018098,7.28 C18.1018098,7.41978571 18.0435585,7.53257143 17.9460329,7.59378571 C17.8456573,7.65578571 17.7213,7.66114286 17.5753939,7.66114286 L16.6624207,7.66114286 L16.6624207,6.92671429 L17.58735,6.92671429 C17.7213,6.92671429 17.85525,6.92964286 17.9460329,6.98578571 C18.0438366,7.03842857 18.1018098,7.13971429 18.1018098,7.28 Z" fill="#2D78BC"></path>
                <path d="M28.2120805,7.96078571 L28.2120805,5.867 L27.6924073,5.867 L27.6924073,5.867 L26.3310805,5.867 C25.9115744,5.867 25.6064159,5.9715 25.3908585,6.13371429 L25.3908585,5.867 L23.3345488,5.867 C23.0057561,5.867 22.6195463,5.95142857 22.4374939,6.13371429 L22.4374939,5.867 L18.7648171,5.867 L18.7648171,6.13371429 C18.4727268,5.91457143 17.9793293,5.867 17.7520244,5.867 L15.3297329,5.867 L15.3297329,6.13371429 C15.0985354,5.90092857 14.5845622,5.867 14.2711317,5.867 L11.5603646,5.867 L10.9400378,6.56535714 L10.3589854,5.867 L6.30955244,5.867 L6.30955244,10.4303571 L10.282522,10.4303571 L10.9218256,9.721 L11.5236622,10.4303571 L13.9729939,10.433 L13.9729939,9.35914286 L14.2135756,9.35914286 C14.5384061,9.3645 14.9215573,9.35085714 15.2596646,9.19878571 L15.2596646,10.4300714 L17.279828,10.4300714 L17.279828,9.24042857 L17.3776317,9.24042857 C17.501989,9.24042857 17.5139451,9.24607143 17.5139451,9.37514286 L17.5139451,10.4300714 L23.6502037,10.4300714 C24.0400976,10.4300714 24.447439,10.3260714 24.6731451,10.1382143 L24.6731451,10.4300714 L26.6192085,10.4300714 C27.0244646,10.4300714 27.4200585,10.371 27.7209768,10.2197143 L27.7209768,10.2149286 C28.160572,9.92357143 28.4528733,9.41314286 28.4528733,8.8305 C28.4534268,8.51078571 28.3645207,8.21278571 28.2120805,7.96078571 Z M14.24715,8.69092857 L13.309778,8.69092857 L13.309778,9.78807143 L11.8498134,9.78807143 L10.9246756,8.70507143 L9.9636,9.78807143 L6.98785244,9.78807143 L6.98785244,6.51721429 L10.0094085,6.51721429 L10.9335037,7.58921429 L11.8890878,6.51721429 L14.2895524,6.51721429 C14.885411,6.51721429 15.555161,6.68907143 15.555161,7.59457143 C15.555161,8.50357143 14.9036232,8.69092857 14.24715,8.69092857 Z M18.7679451,8.54257143 C18.8740902,8.70214286 18.8893829,8.851 18.892511,9.13964286 L18.892511,9.78807143 L18.1387207,9.78807143 L18.1387207,9.37885714 C18.1387207,9.18214286 18.1566549,8.89085714 18.0170049,8.7385 C17.9069671,8.62142857 17.7402768,8.59307143 17.4658427,8.59307143 L16.6629073,8.59307143 L16.6629073,9.788 L15.9083524,9.788 L15.9083524,6.51714286 L17.6426817,6.51714286 C18.0229134,6.51714286 18.299711,6.5345 18.5465488,6.67164286 C18.7837939,6.8205 18.932828,7.02442857 18.932828,7.39778571 C18.932828,7.91978571 18.5980573,8.1865 18.4004341,8.268 C18.5668463,8.33228571 18.7039244,8.44721429 18.7679451,8.54257143 Z M21.8560939,7.194 L20.0968098,7.194 L20.0968098,7.78864286 L21.8132049,7.78864286 L21.8132049,8.456 L20.0968098,8.456 L20.0968098,9.10678571 L21.8560939,9.11 L21.8560939,9.78857143 L19.3489976,9.78857143 L19.3489976,6.51721429 L21.8560939,6.51721429 L21.8560939,7.194 L21.8560939,7.194 Z M23.7690695,9.78835714 L22.3060463,9.78835714 L22.3060463,9.08678571 L23.7636476,9.08678571 C23.9061476,9.08678571 24.0070793,9.06757143 24.0705439,9.00557143 C24.1217744,8.95535714 24.1592415,8.88157143 24.1592415,8.79285714 C24.1592415,8.69742857 24.1192024,8.62157143 24.0674159,8.57607143 C24.0096512,8.52585714 23.9308939,8.50364286 23.8000024,8.50364286 C23.0974427,8.47907143 22.2175573,8.52607143 22.2175573,7.49092857 C22.2175573,7.0165 22.5041561,6.51728571 23.2915207,6.51728571 L24.7977805,6.51728571 L24.7977805,7.2135 L23.4197707,7.2135 C23.2832488,7.2135 23.1942732,7.21885714 23.1185744,7.27228571 C23.0366195,7.3255 23.0056866,7.40378571 23.0056866,7.508 C23.0056866,7.63121429 23.0758939,7.71514286 23.1700829,7.75178571 C23.2496744,7.78014286 23.3344793,7.78842857 23.4624512,7.78842857 L23.8671512,7.80042857 C24.2747012,7.81028571 24.5548354,7.88407143 24.7249317,8.06314286 C24.8713939,8.22028571 24.9493866,8.41914286 24.9493866,8.75564286 C24.949178,9.45957143 24.5270305,9.78835714 23.7690695,9.78835714 Z M27.6354768,9.47242857 C27.4375756,9.68064286 27.1183756,9.78835714 26.7019976,9.78835714 L25.251139,9.78835714 L25.251139,9.08678571 L26.69595,9.08678571 C26.8394927,9.08678571 26.9399378,9.06757143 27.0002744,9.00557143 C27.0525476,8.95535714 27.088972,8.88157143 27.088972,8.79285714 C27.088972,8.69742857 27.0525476,8.62157143 26.9971463,8.57607143 C26.9427878,8.52585714 26.8634744,8.50364286 26.7323744,8.50364286 C26.0269646,8.47907143 25.1470793,8.52607143 25.1470793,7.49092857 C25.1470793,7.0165 25.4363195,6.51728571 26.2249354,6.51728571 L27.6926854,6.51728571 L27.6926854,7.21328571 L26.3524207,7.21328571 C26.2161073,7.21328571 26.1251159,7.21892857 26.0483744,7.27235714 C25.969061,7.32528571 25.9386146,7.40385714 25.9386146,7.50757143 C25.9386146,7.63128571 26.0054854,7.71471429 26.103011,7.75135714 C26.1826024,7.78021429 26.2674073,7.7885 26.3922512,7.7885 L26.7993146,7.8 C27.2102707,7.81042857 27.4847049,7.88392857 27.6513951,8.06328571 C27.6818415,8.08814286 27.7002622,8.11621429 27.7216024,8.144 C27.7130524,8.1325 27.704711,8.12157143 27.6958829,8.11007143 C27.8259402,8.28914286 27.904211,8.51178571 27.904211,8.75364286 C27.9041415,9.03092857 27.8014024,9.28242857 27.6354768,9.47242857 Z M9.61951463,7.194 L10.4414268,8.14707143 L9.58309024,9.10657143 L7.73587317,9.10657143 L7.73587317,8.45578571 L9.38518902,8.45578571 L9.38518902,7.78842857 L7.73587317,7.78842857 L7.73587317,7.194 L9.61951463,7.194 L9.61951463,7.194 Z M11.4084805,8.15828571 L12.5620354,6.86871429 L12.5620354,9.49085714 L11.4084805,8.15828571 Z M14.7491671,7.59485714 C14.7491671,7.87842857 14.5694085,8.02678571 14.2807244,8.02678571 L13.3100561,8.02678571 L13.3100561,7.194 L14.2898305,7.194 C14.5605805,7.194 14.7491671,7.30864286 14.7491671,7.59485714 Z M18.1018098,7.54728571 C18.1018098,7.68707143 18.0435585,7.79985714 17.9460329,7.86107143 C17.8456573,7.92307143 17.7213,7.92842857 17.5753939,7.92842857 L16.6624207,7.92842857 L16.6624207,7.194 L17.58735,7.194 C17.7213,7.194 17.85525,7.19692857 17.9460329,7.25307143 C18.0438366,7.30571429 18.1018098,7.407 18.1018098,7.54728571 Z" fill="#FFFFFF"></path>
            </g>
        </g>
    </g>
</svg>