<svg height="30" viewBox="0 0 30 30" width="30" xmlns="http://www.w3.org/2000/svg" xmlns:xlink="http://www.w3.org/1999/xlink"><defs><rect id="a" height="22.5" rx="2" width="30" y="4"/><mask id="b" fill="#fff"><use fill-rule="evenodd" xlink:href="#a"/></mask></defs><g fill="none" fill-rule="evenodd"><use fill="#27ade4" xlink:href="#a"/><g fill-rule="nonzero" mask="url(#b)"><path d="M4.216 12.353l-.514-1.304-.511 1.304zm11.321-.52c-.103.066-.225.068-.371.068h-.913v-.726h.925c.13 0 .267.005.356.058.097.048.157.15.157.29 0 .142-.057.258-.154.31zm6.507.52l-.52-1.304-.516 1.304zm-12.13 1.412h-.77l-.002-2.563-1.089 2.563h-.66L6.304 11.2v2.565H4.774l-.288-.73H2.923l-.291.73h-.816l1.345-3.272h1.116l1.277 3.098v-3.098h1.225l.982 2.22.903-2.22h1.25zm3.068 0h-2.508v-3.272h2.508v.681h-1.757v.59h1.715v.671h-1.715v.653h1.757zm3.537-2.39c0 .52-.335.79-.53.871.165.066.306.18.372.276.106.163.125.308.125.6v.643h-.758l-.003-.413c0-.197.018-.48-.118-.637-.11-.115-.277-.14-.547-.14h-.807v1.19h-.75v-3.272h1.727c.384 0 .666.01.909.156.237.147.38.36.38.725zm1.202 2.39h-.766v-3.272h.766zm8.888 0h-1.065l-1.423-2.456v2.456h-1.53l-.291-.73h-1.56l-.284.73h-.878c-.365 0-.827-.084-1.089-.362-.264-.278-.401-.654-.401-1.25 0-.484.082-.929.405-1.278.243-.262.623-.382 1.14-.382h.727v.7h-.712c-.274 0-.428.043-.577.195-.128.138-.216.398-.216.741 0 .35.067.603.207.768.115.13.325.17.523.17h.337l1.058-2.574h1.125l1.271 3.095v-3.095h1.144l1.32 2.279v-2.279h.769zm-24.801.643H3.09l.289-.727h.647l.289.727H6.84v-.556l.225.558h1.31l.226-.566v.564h6.273l-.003-1.194h.121c.085.004.11.012.11.158v1.036h3.244v-.278c.262.146.67.278 1.205.278h1.365l.292-.727h.648l.285.727h2.63v-.69l.399.69h2.108V9.844H25.19v.54l-.291-.54h-2.141v.54l-.268-.54H19.6c-.484 0-.91.07-1.253.267v-.267h-1.995v.267c-.219-.203-.517-.267-.848-.267h-7.29l-.489 1.179-.502-1.179H4.927v.54l-.252-.54H2.717l-.91 2.17-1.042 2.394z" fill="#2d78bc"/><path d="M4.216 12.62l-.514-1.304-.511 1.304zm11.321-.52c-.103.066-.225.068-.371.068h-.913v-.726h.925c.13 0 .267.005.356.058.097.048.157.15.157.29 0 .143-.057.258-.154.31zm6.507.52l-.52-1.304-.516 1.304zm-12.13 1.412h-.77l-.002-2.563-1.089 2.563h-.66l-1.09-2.565v2.565H4.774l-.288-.73H2.923l-.291.73h-.816l1.345-3.272h1.116l1.277 3.098V10.76h1.225l.982 2.22.903-2.22h1.25zm3.068 0h-2.508V10.76h2.508v.682h-1.757v.59h1.715v.67h-1.715v.653h1.757zm3.537-2.39c0 .52-.335.791-.53.872.165.065.306.18.372.276.106.162.125.308.125.6v.642h-.758l-.003-.412c0-.197.018-.48-.118-.638-.11-.115-.277-.14-.547-.14h-.807v1.19h-.75V10.76h1.727c.384 0 .666.01.909.157.237.146.38.36.38.725zm1.202 2.39h-.766V10.76h.766zm8.888 0h-1.065l-1.423-2.456v2.456h-1.53l-.291-.73h-1.56l-.284.73h-.878c-.365 0-.827-.084-1.089-.362-.264-.277-.401-.654-.401-1.249 0-.485.082-.93.405-1.28.243-.26.623-.381 1.14-.381h.727v.701h-.712c-.274 0-.428.043-.577.194-.128.138-.216.399-.216.742 0 .35.067.603.207.768.115.13.325.169.523.169h.337l1.058-2.574h1.125l1.271 3.096V10.76h1.144l1.32 2.279V10.76h.769zm-24.801.643H3.09l.289-.727h.647l.289.727H6.84v-.555l.225.557h1.31l.226-.566v.564h6.273l-.003-1.193h.121c.085.003.11.011.11.157v1.036h3.244v-.278c.262.147.67.278 1.205.278h1.365l.292-.727h.648l.285.727h2.63v-.69l.399.69h2.108v-4.564H25.19v.54l-.291-.54h-2.141v.54l-.268-.54H19.6c-.484 0-.91.07-1.253.267v-.267h-1.995v.267c-.219-.202-.517-.267-.848-.267h-7.29l-.489 1.179-.502-1.179H4.927v.54l-.252-.54H2.717l-.91 2.17-1.042 2.394z" fill="#fff"/><path d="M28.962 17.494V15.4H27.082c-.42 0-.726.104-.941.266V15.4h-2.056c-.33 0-.715.084-.898.266V15.4h-3.672v.266c-.292-.219-.786-.266-1.013-.266H16.08v.266c-.231-.232-.745-.266-1.059-.266h-2.71l-.621.698-.581-.698h-4.05v4.563h3.974l.639-.71.602.71 2.449.003v-1.074h.24c.325.005.709-.008 1.047-.16v1.23h2.02v-1.189h.098c.124 0 .136.006.136.135v1.055H24.4c.39 0 .797-.104 1.023-.292v.292h1.946c.405 0 .801-.06 1.102-.21v-.005c.44-.292.732-.802.732-1.385 0-.32-.088-.617-.24-.87zm-13.965.73h-.937v1.097H12.6l-.925-1.083-.961 1.083H7.738V16.05h3.021l.925 1.072.955-1.072h2.4c.596 0 1.266.172 1.266 1.077 0 .91-.651 1.097-1.308 1.097zm4.52-.149c.107.16.122.309.126.597v.649h-.754v-.41c0-.196.018-.487-.122-.64-.11-.117-.277-.145-.551-.145h-.803v1.195h-.755V16.05h1.735c.38 0 .657.017.904.155.237.148.386.352.386.726 0 .522-.335.788-.533.87a.82.82 0 0 1 .368.274zm3.09-1.348h-1.76v.594h1.716v.668h-1.716v.65l1.76.004v.678h-2.508V16.05h2.507zm1.912 2.594h-1.463v-.702h1.458c.142 0 .243-.019.307-.08a.296.296 0 0 0 .088-.213.286.286 0 0 0-.092-.217c-.057-.05-.136-.073-.267-.073-.703-.024-1.582.023-1.582-1.012 0-.475.286-.974 1.074-.974h1.506v.696H24.17c-.137 0-.226.006-.301.059-.082.053-.113.131-.113.236 0 .123.07.207.164.243.08.029.164.037.292.037l.405.012c.408.01.688.084.858.263.146.157.224.356.224.692 0 .704-.422 1.033-1.18 1.033zm3.866-.316c-.197.208-.517.316-.933.316h-1.45v-.702h1.444c.143 0 .244-.019.304-.08a.292.292 0 0 0 .089-.213.274.274 0 0 0-.092-.217c-.054-.05-.134-.073-.265-.073-.705-.024-1.585.023-1.585-1.012 0-.475.29-.974 1.078-.974h1.468v.696h-1.34c-.137 0-.228.006-.305.06-.079.052-.11.13-.11.234 0 .124.067.207.165.244.08.029.164.037.29.037l.406.012c.411.01.686.084.852.263.03.025.05.053.07.08a1.092 1.092 0 0 1-.086 1.328zM10.37 16.727l.821.953-.858.96H8.486v-.652h1.65v-.667h-1.65v-.594zm1.788.964l1.154-1.29v2.623zm3.341-.563c0 .283-.18.431-.468.431h-.97v-.832h.979c.27 0 .46.114.46.4zm3.353-.048c0 .14-.058.253-.156.314-.1.062-.225.067-.37.067h-.914v-.734h.925c.134 0 .268.003.359.059.098.052.156.154.156.294z" fill="#2d78bc"/><path d="M28.962 17.76v-2.093H27.082c-.42 0-.726.104-.941.267v-.267h-2.056c-.33 0-.715.084-.898.267v-.267h-3.672v.267c-.292-.22-.786-.267-1.013-.267H16.08v.267c-.231-.233-.745-.267-1.059-.267h-2.71l-.621.698-.581-.698h-4.05v4.563h3.974l.639-.709.602.71 2.449.002v-1.074h.24c.325.006.709-.008 1.047-.16v1.231h2.02v-1.19h.098c.124 0 .136.006.136.135v1.055H24.4c.39 0 .797-.104 1.023-.292v.292h1.946c.405 0 .801-.059 1.102-.21v-.005c.44-.291.732-.802.732-1.384 0-.32-.088-.618-.24-.87zm-13.965.73h-.937v1.098H12.6l-.925-1.083-.961 1.083H7.738v-3.27h3.021l.925 1.071.955-1.072h2.4c.596 0 1.266.172 1.266 1.078 0 .909-.651 1.096-1.308 1.096zm4.52-.147c.107.16.122.308.126.597v.648h-.754v-.41c0-.196.018-.487-.122-.64-.11-.117-.277-.145-.551-.145h-.803v1.195h-.755v-3.27h1.735c.38 0 .657.016.904.154.237.148.386.352.386.726 0 .522-.335.788-.533.87.167.064.304.18.368.275zm3.09-1.349h-1.76v.595h1.716v.667h-1.716v.65l1.76.004v.679h-2.508v-3.272h2.507zm1.912 2.594h-1.463v-.701h1.458c.142 0 .243-.02.307-.081a.296.296 0 0 0 .088-.213.286.286 0 0 0-.092-.217c-.057-.05-.136-.072-.267-.072-.703-.025-1.582.022-1.582-1.013 0-.475.286-.974 1.074-.974h1.506v.697H24.17c-.137 0-.226.005-.301.058-.082.053-.113.132-.113.236 0 .123.07.207.164.244.08.028.164.036.292.036l.405.012c.408.01.688.084.858.263.146.157.224.356.224.693 0 .704-.422 1.032-1.18 1.032zm3.866-.316c-.197.209-.517.316-.933.316h-1.45v-.701h1.444c.143 0 .244-.02.304-.081a.292.292 0 0 0 .089-.213.274.274 0 0 0-.092-.217c-.054-.05-.134-.072-.265-.072-.705-.025-1.585.022-1.585-1.013 0-.475.29-.974 1.078-.974h1.468v.696h-1.34c-.137 0-.228.006-.305.06-.079.052-.11.13-.11.235 0 .123.067.207.165.243.08.03.164.038.29.038l.406.011c.411.01.686.084.852.263.03.025.05.053.07.081a1.092 1.092 0 0 1-.086 1.328zM10.37 16.994l.821.953-.858.96H8.486v-.651h1.65v-.668h-1.65v-.594zm1.788.964l1.154-1.29v2.623zm3.341-.563c0 .283-.18.432-.468.432h-.97v-.833h.979c.27 0 .46.115.46.4zm3.353-.048c0 .14-.058.253-.156.314-.1.062-.225.067-.37.067h-.914v-.734h.925c.134 0 .268.003.359.06.098.052.156.153.156.293z" fill="#fff"/></g></g></svg>