<svg width="30" height="30" viewBox="0 0 30 30" xmlns="http://www.w3.org/2000/svg" xmlns:xlink="http://www.w3.org/1999/xlink"><title>Pagamento / Dinheiro</title><defs><rect id="a" y="4" width="30" height="22.5" rx="2"/></defs><g fill="none" fill-rule="evenodd"><mask id="b" fill="#fff"><use xlink:href="#a"/></mask><use fill="#59B47D" xlink:href="#a"/><g mask="url(#b)" fill="#FFF"><path d="M15 7.5c-4.136 0-7.5 3.364-7.5 7.5 0 4.135 3.364 7.5 7.5 7.5 4.135 0 7.5-3.365 7.5-7.5 0-4.136-3.365-7.5-7.5-7.5zm0 13.75A6.257 6.257 0 0 1 8.75 15 6.257 6.257 0 0 1 15 8.75 6.257 6.257 0 0 1 21.25 15 6.257 6.257 0 0 1 15 21.25z" fill-rule="nonzero"/><path d="M15.625 10.313h-1.25v1.562H12.5v3.75h3.75v1.25H12.5v1.25h1.875v1.563h1.25v-1.563H17.5v-3.75h-3.75v-1.25h3.75v-1.25h-1.875z"/></g></g></svg>