<svg width="169" height="158" viewBox="0 0 169 158" xmlns="http://www.w3.org/2000/svg"><title>C731FED8-9C2F-43C3-AF72-9905303588E6</title><g stroke="#00a5db" stroke-width="3" fill="none" fill-rule="evenodd" stroke-linecap="round" stroke-linejoin="round"><path d="M85.02 147.41S37.572 168.258 42.344 146M82.007 147.41s47.448 20.849 42.675-1.41"/><path d="M84 147.595s-70.16 4.116-79.099-22.008C1.716 116.277 7.224 108.3 17.495 107M85 147.595s70.16 4.116 79.099-22.008c3.185-9.31-2.323-17.288-12.594-18.587"/><g><path d="M84 147S13.427 64.573 27.912 30.793c6.85-15.977 22.875-16.308 32.373-9.883M84.952 147s70.573-82.427 56.089-116.207c-6.85-15.977-22.876-16.308-32.373-9.883"/><path d="M84 147S7.674 113.003 2.516 85.293C-.889 67.008 13.103 55.1 28.369 57.25M85 147s76.326-33.997 81.484-61.707c3.405-18.285-10.587-30.193-25.853-28.043"/></g><path d="M66.222 8.902c8.402-9.221 26.963-9.184 35.414 0C125.307 34.63 84.337 147 84.337 147S42.647 34.778 66.222 8.902z"/></g></svg>