<svg xmlns="http://www.w3.org/2000/svg" width="356" height="356" viewBox="0 0 356 356"><title>Logo</title><g transform="matrix(.9972 0 0 .9972 3.49 3.49)" fill="none" stroke-width="7" stroke="#fff" fill-rule="evenodd"><circle cx="175" cy="175" r="175"/><path d="M174.604 249.556s-45.247-133.549-19.66-164.342c9.12-10.974 29.263-10.93 38.435 0 25.69 30.615-18.775 164.342-18.775 164.342zm-.092-.029s-75.778-111.442-59.897-145.296c5.659-12.066 23.877-16.766 34.74-9.046m25.542 155.15s-96.451-81.928-91.01-114.704c1.939-11.682 16.391-20.084 27.539-16.093m37.027 126.051s-61.858-26.431-72.072-58.048c-3.64-11.268-.182-32.27 11.554-33.842m87.553 95.828s75.778-111.442 59.898-145.296c-5.66-12.066-23.878-16.766-34.74-9.046m-25.544 155.15s96.453-81.928 91.01-114.704c-1.938-11.682-16.39-20.084-27.538-16.093M201.547 245.59s61.858-26.431 72.072-58.048c3.64-11.268.182-32.27-11.555-33.842m-127.81 96.632s-1.445 16.038 3.517 18.546c2.06 1.04 19.578 4.547 37.126 4.554 17.618.006 35.265-3.492 37.332-4.536 4.962-2.509 3.517-18.556 3.517-18.556" stroke-linecap="round" stroke-linejoin="round"/></g></svg>