<svg xmlns="http://www.w3.org/2000/svg" width="30" height="30" viewBox="0 0 30 30"><title>70B6B209-3236-4186-A0FC-B063BAE749F1</title><g fill="none" fill-rule="evenodd"><path d="M20.295 3.533H9.912m13.39 0h5.16v25.58H1.541V3.533h5.363m3.007.614V2.39a1.503 1.503 0 1 0-3.007 0v3.407c0 .832.673 1.503 1.502 1.503.832 0 1.505-.67 1.505-1.503V4.147m13.39 0V2.39a1.502 1.502 0 1 0-3.007 0v3.407c0 .832.673 1.503 1.504 1.503A1.5 1.5 0 0 0 23.3 5.798V4.147M1.551 11.6h26.824" stroke="#7a8085" stroke-width="1.7739630000000002" stroke-linecap="round" stroke-linejoin="round"/><path d="M22.716 24.677c0 .277-.223.499-.5.499H20.72a.498.498 0 0 1-.498-.5V23.18c0-.275.223-.498.498-.498h1.497c.277 0 .5.223.5.498v1.497M9.848 24.677c0 .277-.222.499-.497.499H7.853a.498.498 0 0 1-.5-.5V23.18c0-.275.224-.498.5-.498H9.35c.275 0 .497.223.497.498v1.497M16.281 24.677c0 .277-.222.499-.5.499h-1.495a.498.498 0 0 1-.5-.5V23.18c0-.275.225-.498.5-.498h1.496c.277 0 .499.223.499.498v1.497M22.716 20.291a.5.5 0 0 1-.5.502H20.72a.5.5 0 0 1-.498-.502v-1.496c0-.278.223-.5.498-.5h1.497c.277 0 .5.222.5.5v1.496M9.848 20.291a.5.5 0 0 1-.497.502H7.853a.5.5 0 0 1-.5-.502v-1.496a.5.5 0 0 1 .5-.5H9.35c.275 0 .497.222.497.5v1.496M16.281 20.291a.5.5 0 0 1-.5.502h-1.495a.5.5 0 0 1-.5-.502v-1.496a.5.5 0 0 1 .5-.5h1.496c.277 0 .499.222.499.5v1.496M22.716 15.912a.5.5 0 0 1-.5.502H20.72a.5.5 0 0 1-.498-.502v-1.496a.5.5 0 0 1 .498-.5h1.497a.5.5 0 0 1 .5.5v1.496M9.848 15.912a.5.5 0 0 1-.497.502H7.853a.5.5 0 0 1-.5-.502v-1.496a.5.5 0 0 1 .5-.5H9.35a.5.5 0 0 1 .497.5v1.496M16.281 15.912a.5.5 0 0 1-.5.502h-1.495a.5.5 0 0 1-.5-.502v-1.496a.5.5 0 0 1 .5-.5h1.496a.5.5 0 0 1 .499.5v1.496" fill="#7a8085"/></g></svg>