<svg width="30" height="30" viewBox="0 0 30 30" xmlns="http://www.w3.org/2000/svg"><title>Compra rápida / Branco</title><path d="M.45 22.5a.3.3 0 0 1-.278-.411L5.894 7.783a.45.45 0 0 1 .418-.283h23.252a.3.3 0 0 1 .278.411L24.12 22.217a.45.45 0 0 1-.418.283H.45zm22.15-7.116a.368.368 0 0 0 .056-.441L20.263 10.8a.368.368 0 0 0-.503-.134l-1.012.584a.368.368 0 0 0-.134.503l1.935 3.352-2.279 3.254a.368.368 0 0 0 .09.512l.905.633a.368.368 0 0 0 .512-.09l2.822-4.03zm-5 0a.368.368 0 0 0 .056-.441L15.263 10.8a.368.368 0 0 0-.503-.134l-1.012.584a.368.368 0 0 0-.134.503l1.935 3.352-2.279 3.254a.368.368 0 0 0 .09.512l.905.633a.368.368 0 0 0 .512-.09l2.822-4.03z" fill="#FFF"/></svg>