<svg width="30" height="30" viewBox="0 0 30 30" xmlns="http://www.w3.org/2000/svg" xmlns:xlink="http://www.w3.org/1999/xlink"><title>Pagamento / Outros</title><defs><rect id="a" y="4" width="30" height="22.5" rx="2"/></defs><g fill="none" fill-rule="evenodd"><mask id="b" fill="#fff"><use xlink:href="#a"/></mask><use fill="#6798E5" xlink:href="#a"/><g mask="url(#b)" fill="#FFF" fill-rule="nonzero"><path d="M15.541 8.5h-1.083a6.518 6.518 0 0 0 0 12.985h1.083a6.518 6.518 0 0 0 0-12.985zm0 3.28a3.261 3.261 0 0 1 0 6.426v-1.113a2.173 2.173 0 0 0 1.625-2.1c0-1.01-.692-1.86-1.625-2.102V11.78zM15 16.078h-.542v4.317a5.433 5.433 0 0 1 0-10.807v4.317H15a1.086 1.086 0 0 1 0 2.173zm.541 4.317v-1.097a4.344 4.344 0 0 0 3.792-4.306 4.345 4.345 0 0 0-3.792-4.307V9.589a5.433 5.433 0 0 1 0 10.807z"/></g></g></svg>