<svg width="30" height="30" viewBox="0 0 30 30" xmlns="http://www.w3.org/2000/svg" xmlns:xlink="http://www.w3.org/1999/xlink"><title>Pagamento / Elo</title><defs><rect id="a" y="4" width="30" height="22.5" rx="2"/></defs><g fill="none" fill-rule="evenodd"><mask id="b" fill="#fff"><use xlink:href="#a"/></mask><use fill="#000" xlink:href="#a"/><g mask="url(#b)"><path d="M13.523 10.648a4.933 4.933 0 0 1 1.553-.249c2.369 0 4.346 1.667 4.8 3.884l3.358-.68c-.771-3.765-4.13-6.6-8.158-6.6-.923 0-1.81.15-2.64.424l1.087 3.22" fill="#F9C623"/><path d="M9.56 21.431l2.27-2.544a4.825 4.825 0 0 1 0-7.268L9.557 9.075a8.199 8.199 0 0 0 .002 12.356" fill="#009ACB"/><path d="M19.875 16.226c-.455 2.215-2.431 3.879-4.8 3.879a4.909 4.909 0 0 1-1.554-.25l-1.088 3.222a8.42 8.42 0 0 0 2.643.423c4.024 0 7.382-2.83 8.156-6.592l-3.357-.682" fill="#DC3E2A"/></g></g></svg>