<svg xmlns="http://www.w3.org/2000/svg" xmlns:xlink="http://www.w3.org/1999/xlink" width="30" height="30" viewBox="0 0 30 30"><defs><path id="a" d="M23.547 23.547c-5.273 5.27-13.821 5.27-19.092 0-5.273-5.274-5.273-13.823 0-19.094 5.27-5.27 13.819-5.27 19.09 0 5.273 5.271 5.273 13.82.002 19.094z"/><mask id="b" width="30" height="30" x="-1.5" y="-1.5"><path fill="#fff" d="M-1-1h30v30H-1z"/><use xlink:href="#a"/></mask></defs><g fill="none" fill-rule="evenodd" stroke="#000" stroke-linecap="round" stroke-linejoin="round" transform="translate(1 1)"><use stroke-width="3" mask="url(#b)" xlink:href="#a"/><path stroke-width="1.5" d="M11.106 16.942L7.48 19.064l-2.018-3.82m17 .65c-.867-2.223-2.66-4.023-5.027-4.736-4.106-1.231-8.383 1.27-9.553 5.59a8.468 8.468 0 0 0-.296 1.965"/></g></svg>